# xmcd
#
# Track frame offsets:
#	150
#	11626
#	24152
#	40278
#	51004
#	63755
#	75756
#	88582
#	98933
#	114234
#	126985
#
# Disc length: 1838 seconds
#
# Revision: 0
# Processed by: cddbd v1.5.2PL0 Copyright (c) Steve Scherf et al.
# Submitted via: audiograbber 1.83.01
#
DISCID=77072c0b
DTITLE=Eddie Rabbitt - Rocky Mountain Music
DYEAR=1976
DGENRE=Country
TTITLE0=Do You Right Tonight
TTITLE1=I Can't Get This Ring Off My Finger
TTITLE2=Rocky Mountain Music
TTITLE3=Two Dollars In The Jukebox
TTITLE4=I Don't Wonna Make Love (With Anyone Else But You)
TTITLE5=I Just Got To Have You
TTITLE6=Tullohma Dancing Pizza Man
TTITLE7=Ain't I Something
TTITLE8=There's Someone She Lies To (To Lay Here With Me)
TTITLE9=Could You Love A Poor Boy, Dolly
TTITLE10=Drinkin' My Baby (Off My Mind)
EXTD=
EXTT0=
EXTT1=
EXTT2=
EXTT3=
EXTT4=
EXTT5=
EXTT6=
EXTT7=
EXTT8=
EXTT9=
EXTT10=
PLAYORDER=
